<svg width="21" height="20" fill="none" xmlns="http://www.w3.org/2000/svg"><mask id="a" fill="#fff"><path d="m18.269 18.39.146.347.377.005 1.675.021v.745h-5.559v-.745l1.79-.021.853-.01-.33-.788L11.031 3.2a3.03 3.03 0 0 0-1.103-1.355A2.97 2.97 0 0 0 8.21 1.3c-.851 0-1.592.326-2.184.93a3.005 3.005 0 0 0-.893 2.175V8.2h2.492c.612 0 1.149.162 1.613.45l.009.005.009.005c.502.289.894.668 1.175 1.164.293.521.452 1.057.452 1.634v8.05H7.686c.118-.237.217-.484.296-.738h2.135v-7.312c0-.65-.226-1.251-.718-1.731a2.432 2.432 0 0 0-1.774-.732H2.258V11.901c-.25.027-.496.073-.738.136V8.2H4.4l-.005-.58-.028-3.217c0-.7.183-1.347.525-1.93a3.971 3.971 0 0 1 1.4-1.418A3.647 3.647 0 0 1 8.21.533c.787 0 1.49.216 2.122.64a3.938 3.938 0 0 1 1.432 1.705l6.505 15.511ZM4.367 17.207c0-.844-.689-1.533-1.534-1.533-.844 0-1.533.689-1.533 1.533 0 .845.689 1.534 1.533 1.534.845 0 1.534-.689 1.534-1.534Zm-3.834 0c0-1.273 1.027-2.3 2.3-2.3 1.274 0 2.3 1.027 2.3 2.3 0 1.274-1.026 2.3-2.3 2.3a2.296 2.296 0 0 1-2.3-2.3Z"/></mask><path d="m18.269 18.39.146.347.377.005 1.675.021v.745h-5.559v-.745l1.79-.021.853-.01-.33-.788L11.031 3.2a3.03 3.03 0 0 0-1.103-1.355A2.97 2.97 0 0 0 8.21 1.3c-.851 0-1.592.326-2.184.93a3.005 3.005 0 0 0-.893 2.175V8.2h2.492c.612 0 1.149.162 1.613.45l.009.005.009.005c.502.289.894.668 1.175 1.164.293.521.452 1.057.452 1.634v8.05H7.686c.118-.237.217-.484.296-.738h2.135v-7.312c0-.65-.226-1.251-.718-1.731a2.432 2.432 0 0 0-1.774-.732H2.258V11.901c-.25.027-.496.073-.738.136V8.2H4.4l-.005-.58-.028-3.217c0-.7.183-1.347.525-1.93a3.971 3.971 0 0 1 1.4-1.418A3.647 3.647 0 0 1 8.21.533c.787 0 1.49.216 2.122.64a3.938 3.938 0 0 1 1.432 1.705l6.505 15.511ZM4.367 17.207c0-.844-.689-1.533-1.534-1.533-.844 0-1.533.689-1.533 1.533 0 .845.689 1.534 1.533 1.534.845 0 1.534-.689 1.534-1.534Zm-3.834 0c0-1.273 1.027-2.3 2.3-2.3 1.274 0 2.3 1.027 2.3 2.3 0 1.274-1.026 2.3-2.3 2.3a2.296 2.296 0 0 1-2.3-2.3Z" fill="#D92E15"/><path d="m18.269 18.39-1.107.463 1.107-.464Zm.146.347-1.107.464.305.726.786.01.016-1.2Zm.377.005-.016 1.2.016-1.2Zm1.675.021h1.2v-1.185l-1.185-.015-.015 1.2Zm0 .745v1.2h1.2v-1.2h-1.2Zm-5.559 0h-1.2v1.2h1.2v-1.2Zm0-.745-.014-1.2-1.186.015v1.185h1.2Zm1.79-.021.014 1.2-.014-1.2Zm.853-.01.015 1.2 1.782-.023-.69-1.642-1.107.464Zm-.33-.788-1.107.465 1.107-.465ZM11.031 3.2 9.92 3.65l.002.007.003.006 1.107-.464ZM9.929 1.844l-.686.984.686-.984Zm-3.902.385-.857-.84.857.84ZM5.133 8.2h-1.2v1.2h1.2V8.2Zm4.105.45.636-1.017-.003-.002-.633 1.02Zm.009.005L8.61 9.673l.022.014.022.013.592-1.045Zm.009.005.597-1.04-.006-.004-.591 1.044Zm1.175 1.164 1.045-.59-1.046.59Zm.452 9.684v1.2h1.2v-1.2h-1.2Zm-3.197 0-1.075-.533-.86 1.733h1.935v-1.2Zm.296-.738v-1.2h-.883l-.262.843 1.145.357Zm2.135 0v1.2h1.2v-1.2h-1.2Zm-.718-9.043-.847.85.009.008.838-.858Zm-7.14-.732v-1.2h-1.2v1.2h1.2Zm0 2.906.129 1.193 1.07-.116v-1.077h-1.2Zm-.739.136H.32v1.553l1.503-.392-.303-1.161Zm0-3.837V7H.32v1.2h1.2Zm2.88 0v1.2h1.211l-.01-1.21-1.2.01Zm-.005-.58 1.2-.01-1.2.01Zm-.028-3.217-1.2-.001v.011l1.2-.01Zm.525-1.93 1.035.606-1.035-.607Zm1.4-1.418.617 1.03-.617-1.03Zm4.04.118.672-.994-.003-.002-.669.996Zm1.432 1.705 1.107-.464-.005-.01-.005-.01-1.097.484Zm5.398 15.975.146.348 2.213-.928-.146-.348-2.213.928Zm1.237 1.084.377.005.031-2.4-.377-.005-.03 2.4Zm.377.005 1.675.021.031-2.4-1.675-.021-.03 2.4Zm.49-1.179v.745h2.4v-.745h-2.4Zm1.2-.455h-5.558v2.4h5.559v-2.4Zm-4.358 1.2v-.745h-2.4v.745h2.4Zm-1.185.455 1.79-.021-.03-2.4-1.79.021.03 2.4Zm1.79-.021.853-.01-.03-2.4-.853.01.03 2.4Zm1.945-1.675-.33-.787-2.213.929.33.787 2.213-.93Zm-.33-.787-6.19-14.746-2.213.93 6.19 14.745 2.213-.93ZM12.143 2.747A4.228 4.228 0 0 0 10.614.86L9.243 2.828c.323.226.546.498.678.822l2.223-.903ZM10.614.86A4.17 4.17 0 0 0 8.21.1v2.4c.375 0 .72.112 1.032.328L10.615.86ZM8.21.1C7.023.1 5.978.565 5.17 1.39l1.713 1.68c.376-.384.812-.57 1.327-.57V.1ZM5.17 1.39a4.204 4.204 0 0 0-1.237 3.015h2.4c0-.525.175-.953.55-1.335L5.169 1.39ZM3.932 4.404v3.22h2.4v-3.22h-2.4Zm0 3.22V8.2h2.4v-.575h-2.4Zm1.2 1.775h.575V7h-.575v2.4Zm.575 0h1.917V7H5.708v2.4Zm1.917 0c.389 0 .707.1.98.27l1.266-2.04A4.204 4.204 0 0 0 7.625 7v2.4Zm.978.268.008.005 1.272-2.035-.009-.005-1.271 2.035Zm.052.032.009.004 1.183-2.088-.008-.005L8.655 9.7Zm.003.001c.333.19.562.42.728.713l2.09-1.18A4.251 4.251 0 0 0 9.853 7.62L8.658 9.7Zm.728.713c.207.367.297.702.297 1.044h2.4c0-.812-.227-1.55-.607-2.224l-2.09 1.18Zm.297 1.044v8.05h2.4v-8.05h-2.4Zm1.2 6.85H7.686v2.4h3.197v-2.4Zm-2.122 1.733c.146-.294.268-.6.366-.913l-2.29-.715c-.06.193-.136.381-.226.562l2.15 1.066Zm-.779-.07h1.56v-2.4h-1.56v2.4Zm1.56 0h.575v-2.4h-.575v2.4Zm1.775-1.2v-.576h-2.4v.575h2.4Zm0-.576v-6.737h-2.4v6.737h2.4Zm0-6.737c0-.947-.34-1.867-1.079-2.59l-1.677 1.717c.242.237.356.521.356.873h2.4Zm-1.07-2.581a3.631 3.631 0 0 0-2.622-1.082v2.4c.379 0 .67.125.927.381l1.695-1.699ZM7.625 7.795H2.833v2.4h4.792v-2.4Zm-4.792 0h-.575v2.4h.575v-2.4Zm-1.775 1.2v.575h2.4v-.575h-2.4Zm0 .575v2.331h2.4v-2.33h-2.4Zm1.07 1.138a6.3 6.3 0 0 0-.91.168l.605 2.322c.185-.048.373-.083.565-.104l-.26-2.386Zm.592 1.329V8.2H.32v3.837h2.4ZM1.52 9.4h2.3V7h-2.3v2.4Zm2.3 0h.58V7h-.58v2.4ZM5.6 8.19l-.005-.58-2.4.02.006.58 2.4-.02Zm-.005-.58-.028-3.218-2.4.021.028 3.218 2.4-.022Zm-.028-3.207c0-.482.123-.92.36-1.324l-2.07-1.213a4.972 4.972 0 0 0-.69 2.536l2.4.001Zm.36-1.324c.244-.417.57-.747.982-.995L5.674.026a5.17 5.17 0 0 0-1.818 1.84l2.071 1.213Zm.982-.995c.387-.232.808-.35 1.3-.35v-2.4c-.914 0-1.764.23-2.535.692L6.91 2.084Zm1.3-.35c.552 0 1.022.145 1.455.436L11 .177A4.917 4.917 0 0 0 8.21-.667v2.4Zm1.452.434c.462.312.787.703 1.005 1.195l2.195-.97A5.136 5.136 0 0 0 11.005.18L9.661 2.168Zm.996 1.175 6.505 15.51 2.213-.928-6.505-15.51-2.213.928Zm-5.09 13.865a2.736 2.736 0 0 0-2.734-2.733v2.4c.182 0 .334.151.334.333h2.4Zm-2.734-2.733A2.736 2.736 0 0 0 .1 17.208h2.4c0-.182.151-.333.333-.333v-2.4ZM.1 17.208a2.736 2.736 0 0 0 2.733 2.734v-2.4a.336.336 0 0 1-.333-.334H.1Zm2.733 2.734a2.736 2.736 0 0 0 2.734-2.734h-2.4a.336.336 0 0 1-.334.334v2.4Zm-1.1-2.734c0-.61.49-1.1 1.1-1.1v-2.4a3.496 3.496 0 0 0-3.5 3.5h2.4Zm1.1-1.1c.61 0 1.1.49 1.1 1.1h2.4c0-1.936-1.564-3.5-3.5-3.5v2.4Zm1.1 1.1c0 .61-.49 1.1-1.1 1.1v2.4c1.936 0 3.5-1.564 3.5-3.5h-2.4Zm-1.1 1.1c-.61 0-1.1-.49-1.1-1.1h-2.4c0 1.936 1.564 3.5 3.5 3.5v-2.4Z" fill="#D92E15" mask="url(#a)"/></svg>